<svg xmlns="http://www.w3.org/2000/svg" width="1562" height="1007" preserveAspectRatio="none" style="display: block;" version="1.1" viewBox="0 0 2048 1320"><defs><linearGradient id="a" x1="576.857" x2="580.253" y1="1033.64" y2="1064.34" gradientUnits="userSpaceOnUse"><stop class="stop0" offset="0" stop-color="rgb(113,145,176)" stop-opacity="1"/><stop class="stop1" offset="1" stop-color="rgb(12,114,144)" stop-opacity="1"/></linearGradient></defs><path fill="rgb(16,95,136)" d="M1116.11 499.362c26.04-1.78 31.85-2.032 57.71 3.02 16.18 6.576 20.6 9.825 30.03 24.553.88 1.366 2.87.413 4.17.029 2.54-2.903 2.71-4.048 3.79-7.684l.5-1.942c9.53-1.215 20.18-4.656 29.55-7.112 24.61-6.456 48.58-11.479 74.04-7.637 4.57.689 12.66 1.339 16.5 3.426 4.13 10.655 16.03 41.573 31.67 33.524 5.02-2.581 7.99-9.395 10.51-14.361 4.49 3.369 12.06 8.692 15.79 12.507 8.72-10.25 64.1-20.385 79.52-21.143 11.31-.556 27.39-.553 39.06-.47 6.48 3.577 37.37 11.345 46.57 14.149l8.86 4.609c19.07 2.697 46.6-9.924 62.32-20.128 11.98 9.934 26.67 22.651 40.06 29.881-8.15 33.454-18.23 56.73-43.71 79.845 4.01 7.881 6.12 15.54 16.16 9.684 19.18-11.179 40.99-22.544 58.45-36.169 7.52-5.871 9.47-40.841 22.87-44.517 4.04 3.902.35 10.485 1.06 15.936 2.71-.413 12.75-8.296 15.74-10.471 4.18 1.743 6.4 2.479 10.77 3.675 21.67 38.38-4.58 34.897-28.82 54.119-27.18 21.556-61.63 62.19-96.27 69.757-19.99-5.891-28.57-19.98-41.57-35.825-24.21 15.42-36.43 19.3-62.96 25.941-10.16 12.569-23.74 34.472-30.7 48.873 42.74 28.444 167.18 107.382 55.79 144.825-4.06 1.362-8.55 3.294-12.59 4.84l-74.44 28.175c-9.28 3.499-29.57 10.506-37.07 14.415 1.24 9.843 8.46 60.257 7.91 66.238-7.57 4.284-12.66 8.022-20.77 11.904-2.64 1.266-13.98 6.232-15.16 6.972-11.12 3.28-38.17 15.47-47.43 22.18-5.19.57-6.91.88-12.03.04-6.97-11.59-5.22-26.541-11.4-35.163-3.39-1.613-39.39-51.187-43.5-57.958-10.48-12.771-18.83-26.497-28.05-40.094l-2.52-.653c-2.45-9.225-5.45-16.851-10.39-25.054-2.5-4.136-4.09-7.455-4.47-12.36l.16-1.884c-4.34-6.239-52.76-28.651-62.46-32.877-17.54-8.604-37.4-17.14-55.38-25.091-3.22 4.332-6.26 8.461-9.75 12.6-30.56-23.877-48.82-23.653-68.35-64.719-4.16-32.314 1.06-48.866 21.87-74.296 4.02-6.965 13.19-14.085 19.38-23.026 18.13-26.168 28.73-64.224 35.56-95.441-4.61.008-11.82-.377-15.95 1.058-2.42 7.058-7.7 25.35-10.01 30.741-14.26 1.248-25.03 2.029-39.31 1.212-1.26 2.861-1.86 4.572-2.77 7.565-5.48 2.309-15.89 5.055-18.77 8.528l-4.42.499c-3.61-1.389-7.1-2.155-10.84-3.092-1.4-2.057-3.13-5.706-4.33-8.031 4.03-9.665 9.84-20.459 15.3-29.382 8.03-12.942 11.76-20.323 24.11-29.732 7.55-3.932 12.18-2.081 16.76-10.628l.44-.637c16.91-10.427 34.05-14.125 53.21-17.743m124.89 61.299c10.74-1.333 22.61-1.263 33.12-2.666-2.94 6.605-6.16 13.134-7.83 20.152 5.22-4.339 23.64-15.736 29.53-18.924-.67-5.135-1.03-12.095 1.86-16.595 4.99-4.444 10.98-.511 16.87-5.647 2.17-1.899 4.53-2.397 7.39-2.233 6.88 2.682 16.25 16.043 13.42 23.473-3.12 8.214-14.77 13.068-20.24 19.474-2.34 3.564-5.79 8.692-8.87 11.56-14.17 13.197-49.42 53.765-70.48 41.953-6.76 12.843-12.96 28.02-18.8 41.453 30.6 12.588 57.38 26.715 87.18 40.607l53.52-78.566c7.17-10.604 19.43-31.151 27.44-39.567 3-1.101 2.06-1.237 4.75-.589 2.35 9.269-13.38 22.95-8.02 31.014 7.21 2.182 31.06-19.721 36.04-25.364-13.87-29.604-18.83-37.26-41.43-60.135-25.05 28.497-41.14-5.203-52.59-25.319-28.07-6.999-78.78.543-103.48 12.571 8.71 10.76 13.65 21.793 20.62 33.348m-70.32 163.424c6.28 4.005 11.55 5.653 16.12 10.923.5-28.789 4.52-31.814 15.82-56.27l14.73-32.099c2.88-6.192 8.29-16.781 9.37-22.865l-10.15-11.892c-8.01 8.743-10.43 13.33-16.22 23.369-1.22 2.102-6.84 6.283-9.13 9.414-11.44 15.592-20.53 37.226-20.37 56.604.07 9.025 2.27 14.352-.17 22.816m240.12 105.888c.65 9.961 2.22 38.976 4.36 47.398 25.89-14.219 48.74-33.315 76.61-44.09 3.78-1.461 13.03-4.743 12.38-9.329-13.98-8.088-51.6-23.872-67.48-30.837-7.68 13.361-15.69 25.307-25.87 36.858m-49.81 65.567c-.89-5.046-3.65-14.882-4.97-20.18-6.61 4.448-32.68 21.456-36.57 26.399 5.94 11.094 11.04 22.461 16.28 33.905 4.6 10.033 13.97 25.074 17.09 34.99 2.77.968 4.47 1.904 7.32 1.365 1.82-3.301 1.07-7.035 1-11.285-.36-17.387-6.61-41.758-4.81-59.788.34-3.385 2.11-3.845 4.66-5.406m71.37-289.293c7.56-13.79 12.24-24.102 17.8-38.81-12.41.752-22.98 2.661-34.98 5.814 3.03 5.678 14.45 28.993 17.18 32.996m-177.57 183.114c9.62 4.044 19.74 18.611 25.02 27.312 4.22 6.945 8.84 25.239 15.02 29.545 4.6-2.873 17.11-19.635 20.47-25.744-6.85-4.3-55.24-34.131-58.78-34.029zm113.66-58.092c-1.4-31.713 17.68-52.578 41.63-70.411l-4.93-6.212c-19.73 8.046-30.25 9.31-50.57 1.645-14.68 21.665-29 43.578-42.94 65.729 13.79 10.897 30.3 26.597 43.82 38.533 2.14-6.705 12.67-26.223 12.99-29.284"/><path fill="rgb(254,209,145)" d="M1295.82 559.223c-.67-5.135-1.03-12.095 1.86-16.595 4.99-4.444 10.98-.511 16.87-5.647 2.17-1.899 4.53-2.397 7.39-2.233 6.88 2.682 16.25 16.043 13.42 23.473-3.12 8.214-14.77 13.068-20.24 19.474-10.14-5.287-12.36-9.47-19.3-18.472"/><path fill="rgb(254,105,52)" d="M1564.38 534.83c19.07 2.697 46.6-9.924 62.32-20.128 11.98 9.934 26.67 22.651 40.06 29.881-8.15 33.454-18.23 56.73-43.71 79.845 4.01 7.881 6.12 15.54 16.16 9.684 19.18-11.179 40.99-22.544 58.45-36.169 7.52-5.871 9.47-40.841 22.87-44.517 4.04 3.902.35 10.485 1.06 15.936 2.71-.413 12.75-8.296 15.74-10.471 4.18 1.743 6.4 2.479 10.77 3.675 21.67 38.38-4.58 34.897-28.82 54.119-27.18 21.556-61.63 62.19-96.27 69.757-19.99-5.891-28.57-19.98-41.57-35.825-24.21 15.42-36.43 19.3-62.96 25.941-10.16 12.569-23.74 34.472-30.7 48.873 42.74 28.444 167.18 107.382 55.79 144.825-4.06 1.362-8.55 3.294-12.59 4.84l-74.44 28.175c-9.28 3.499-29.57 10.506-37.07 14.415-1.27-10.096-4.43-31.022-4.31-40.315 25.89-14.219 48.74-33.315 76.61-44.09 3.78-1.461 13.03-4.743 12.38-9.329-13.98-8.088-51.6-23.872-67.48-30.837-27.45-7.821-60.19-33.836-68.22-61.846-1.4-31.713 17.68-52.578 41.63-70.411 12.93 14.288 23.75 22.816 41.76 8.486 25.16-20.019 51.52-46.623 71.03-72.437-9.79-6.777-12.36-9.946-19.76-18.937-19.85 16.165-42.47 34.132-63.29 49.003-2.22-4.718-8.47-16.167-7.46-20.726 7.56-13.79 12.24-24.102 17.8-38.81-12.41.752-22.98 2.661-34.98 5.814-8.93-15.383-13.37-21.923-24.81-35.566 8.72-10.25 64.1-20.385 79.52-21.143 11.31-.556 27.39-.553 39.06-.47 6.48 3.577 37.37 11.345 46.57 14.149z"/><path fill="rgb(121,121,121)" d="M1564.38 534.83c19.07 2.697 46.6-9.924 62.32-20.128 11.98 9.934 26.67 22.651 40.06 29.881-8.15 33.454-18.23 56.73-43.71 79.845-20.15-37.941-23.17-60.701-58.67-89.598"/><path fill="rgb(254,209,145)" d="M1503.11 577.97c2.71-11.39 3.9-23.47 14.43-30.129a19.94 19.94 0 0 1 15.07-2.652c10.98 2.499 20.33 18.901 17.43 29.109-1.97 6.973-20.71 18.268-27.17 22.609-9.79-6.777-12.36-9.946-19.76-18.937"/><path fill="rgb(121,121,121)" d="M1518.48 676.558c12.71-16.494 31.23-36.495 45.58-52.028 4.85 6.127 12.81 19.111 17.38 26.087-24.21 15.42-36.43 19.3-62.96 25.941"/><path fill="rgb(19,165,174)" d="M1116.11 499.362c26.04-1.78 31.85-2.032 57.71 3.02 16.18 6.576 20.6 9.825 30.03 24.553.88 1.366 2.87.413 4.17.029 2.54-2.903 2.71-4.048 3.79-7.684 1.58 1.531 7.13 7.077 8.57 8.033 8.71 10.76 13.65 21.793 20.62 33.348 10.74-1.333 22.61-1.263 33.12-2.666-2.94 6.605-6.16 13.134-7.83 20.152 5.22-4.339 23.64-15.736 29.53-18.924 6.94 9.002 9.16 13.185 19.3 18.472-2.34 3.564-5.79 8.692-8.87 11.56-14.17 13.197-49.42 53.765-70.48 41.953-3.29-3.179-5.07-5.132-9.05-7.434l-10.15-11.892c-8.01 8.743-10.43 13.33-16.22 23.369-1.22 2.102-6.84 6.283-9.13 9.414-11.44 15.592-20.53 37.226-20.37 56.604.07 9.025 2.27 14.352-.17 22.816-42.64-14.404-64.43-25.841-103-48.955-5-2.72-6.19-3.491-9.93-7.659 4.02-6.965 13.19-14.085 19.38-23.026 18.13-26.168 28.73-64.224 35.56-95.441-4.61.008-11.82-.377-15.95 1.058-2.42 7.058-7.7 25.35-10.01 30.741-14.26 1.248-25.03 2.029-39.31 1.212-1.26 2.861-1.86 4.572-2.77 7.565-5.48 2.309-15.89 5.055-18.77 8.528l-4.42.499c-3.61-1.389-7.1-2.155-10.84-3.092-1.4-2.057-3.13-5.706-4.33-8.031 4.03-9.665 9.84-20.459 15.3-29.382 8.03-12.942 11.76-20.323 24.11-29.732 7.55-3.932 12.18-2.081 16.76-10.628l.44-.637c16.91-10.427 34.05-14.125 53.21-17.743"/><path fill="rgb(254,176,49)" d="M1047.42 582.015c11.24-20.796 25.81-28.93 49.32-31.953-2.42 7.058-7.7 25.35-10.01 30.741-14.26 1.248-25.03 2.029-39.31 1.212"/><path fill="rgb(16,95,136)" d="M1241 560.661c10.74-1.333 22.61-1.263 33.12-2.666-2.94 6.605-6.16 13.134-7.83 20.152-3.82 2.031-4.68 8.111-10.81 8.499-1.28-1.239-13.16-23.212-14.48-25.985"/><path fill="rgb(254,198,46)" d="M1035.88 741.767c-4.16-32.314 1.06-48.866 21.87-74.296 3.74 4.168 4.93 4.939 9.93 7.659 38.57 23.114 60.36 34.551 103 48.955 6.28 4.005 11.55 5.653 16.12 10.923 3.78 4.055 65.5 54.068 67.99 54.353 9.62 4.044 19.74 18.611 25.02 27.312 4.22 6.945 8.84 25.239 15.02 29.545l.46 1.373-1.9 2.498c2.81 7.61 21.37 48.838 26.06 51.67 5.94 11.094 11.04 22.461 16.28 33.905 4.6 10.033 13.97 25.074 17.09 34.99-12.78 14.271-16.61 12.5-32.23 19.203-3.39-1.613-39.39-51.187-43.5-57.958-10.48-12.771-18.83-26.497-28.05-40.094l-2.52-.653c-2.45-9.225-5.45-16.851-10.39-25.054-2.5-4.136-4.09-7.455-4.47-12.36l.16-1.884c-4.34-6.239-52.76-28.651-62.46-32.877-17.54-8.604-37.4-17.14-55.38-25.091-3.22 4.332-6.26 8.461-9.75 12.6-30.56-23.877-48.82-23.653-68.35-64.719"/><path fill="rgb(16,95,136)" d="M1035.88 741.767c-4.16-32.314 1.06-48.866 21.87-74.296 3.74 4.168 4.93 4.939 9.93 7.659-7.79 9.012-14.03 17.401-17.76 28.947-15.65 48.48 28.71 72.116 64.06 89.809-3.22 4.332-6.26 8.461-9.75 12.6-30.56-23.877-48.82-23.653-68.35-64.719"/><path fill="rgb(254,105,52)" d="M1315.3 820.474c12.28 7.458 26.46 15.318 38.32 22.85.39 8.806 2.42 25.266 2.4 32.036-6.61 4.448-32.68 21.456-36.57 26.399-4.69-2.832-23.25-44.06-26.06-51.67l1.9-2.498-.46-1.373c4.6-2.873 17.11-19.635 20.47-25.744m45.84 140.26c-.36-17.387-6.61-41.758-4.81-59.788.34-3.385 2.11-3.845 4.66-5.406 7.48 23.107 19.7 55.186 25.43 78.045-10.07 1.867-14.15 1.649-24.29-.019-.17-3.691-.26-9.39-.99-12.832"/><path fill="rgb(190,226,231)" d="M1367.39 771.837c1.41.784 2.74 1.719 3.96 2.789 11.35 10 38.57 37.786 39.54 53.481-8.9-19.234-16.44-26.642-30.94-41.779-3.7-3.86-10.05-10.109-12.56-14.491"/><path fill="rgb(16,95,136)" d="M597.348 585.914c31.209-31.615 30.727-35.842 74.263-46.341 46.121-11.121 66.835-17.295 114.253-6.311.594 29.967 25.362 51.428 43.321 17.168 7.737 4.238 24.376 15.745 31.044 21.847 13.055-8.856 18.587-16.068 30.13-24.426 16.694 10.217 23.158 13.758 42.416 18.964-2.327 16.482-6.107 34.312-14.663 48.717-5.256 8.85-10.783 22.111-17.749 29.394 1.237 3.149 2.146 4.26 4.964 5.827 7.693-.902 42.311-31.436 52.71-37.713-3.86-9.341-.247-21.251 2.223-30.84 3.604-3.498 5.846-6.875 11.072-6.27 2.917 2.386 3.104 5.5 4.027 9.355 5.689-6.02 9.158-8.292 16.21-12.648 8.242 5.087 9.791 6.517 14.721 14.847 1.2 2.325 2.93 5.974 4.33 8.031 3.74.937 7.23 1.703 10.84 3.092l4.42-.499c2.88-3.473 13.29-6.219 18.77-8.528.91-2.993 1.51-4.704 2.77-7.565 14.28.817 25.05.036 39.31-1.212-19.12 52.57-49.43 111.932-113.495 114.032-9.565.313-20.525-1.823-29.471-5.161a194 194 0 0 1-9.7-3.911c-5.636 8.514-23.133 20.167-33.273 22.961-25.91 7.139-51.684-46.003-65.772-49.984-4.512.761-7.635 4.727-9.604 8.309-7.346 13.362-52.361 78.37-55.423 88.391 10.007 9.689 24.885 18.781 35.888 28.293 14.56 12.588 28.882 25.462 43.219 38.33 7.009 6.291 15.472 12.491 20.454 20.133 9.469 14.523 13.433 36.194 20.427 50.152a1173 1173 0 0 0 17.183 43.175c8.596 18.935 18.91 43.113 26.818 62.416-6.76 3.431-13.974 7.321-20.979 10.111-5.65 2.16-10.085 3.7-15.349 6.79-6.011-13.97-27.193-40.876-36.92-55.069-7.587-11.365-14.861-23.824-21.963-35.563-9.797-18.364-13.749-32.466-21.669-47.969-11.929-6.91-34.386-16.793-47.567-23.335-14.066-6.982-38.583-20.438-52.305-25.698-23.863 31.731-50.091 70.366-80.428 95.691-17.39 14.518-69.311-1.656-91.059-6.601l-90.357-20.008a215 215 0 0 0 7.226-37.869c5.301.987 26.495 1.631 33.081 1.846 43.174 1.411 66.639-1.382 108.061 10.419 11.092-28.079 25.943-67.057 39.767-93.563-3.375-13.24-4.057-21.233-1.396-35.04 1.199-8.562 7.52-16.096 10.182-23.923 13.583-39.947 32.849-77.769 48.384-117.153-11.544.107-27.783 1.543-39.525 2.265-7.77 5.886-17.261 17.589-25.184 24.606-9.047 8.011-17.255 14.037-26.994 21.084-9.615 6.956-16.837 15.017-27.671 20.614-8.849 13.376-22.273 25.56-34.324 36.057-11.927 10.389-28.095 16.368-41.317 24.633-6.912 2.475-15.627 5.842-22.504 7.74-2.879.25-6.157.451-8.973.92a288 288 0 0 1-10.562-1.817c-15.047-3-22.798-9.822-30.993-22.112l.491-9.536 2.524-3.1c-.557-3.217-11.073-3.683-14.797-4.456-10.09-2.095-16.938-4.083-25.416-10.102 48.833 2.619 101.016-17.419 133.957-54.762 28.074-31.826 20.357-65.372 17.108-102.926 10.836.681 19.123 1.036 29.949.821 7.699 11.713 13.616 28.034 17.476 41.516.783 2.736 2.794 12.313 3.413 13.464"/><path fill="rgb(254,198,46)" d="M546.51 530.113c10.836.681 19.123 1.036 29.949.821 7.699 11.713 13.616 28.034 17.476 41.516.783 2.736 2.794 12.313 3.413 13.464-.942 4.75.13 9.021.928 13.811 7.685-6.807 40.509-37.479 46.158-40.145 24.965-11.785 76.955-22.46 104.076-20.883a345 345 0 0 1 26.92 2.641c1.8 6.616 3.256 12.944 7.118 18.66 13.933 20.618 33.274 22.839 49.372 4.493 30.925 19.176 34.571 34.08 51.088 64.573-11.017 9.012-23.185 18.673-33.677 28.117l-10.683-12.454c3.914-5.459 12.492-16.012 12.703-22.378l-1.251-1.28c-4.178.356-6.703 1.578-9.227 5.07-8.959 12.398-17.737 25.953-26.16 38.69a2868 2868 0 0 0-52.511 81.376l-60.201-24.854c-10.086-4.135-24.673-9.635-34.163-14.297 15.081-35.452 30.38-72.141 46.055-107.237 6.372-.128 24.739 1.717 24.384-6.422-4.921-5.43-32.937-3.042-41.526-2.661-13.303.59-39.419-.167-48.727 10.501-15.983 18.319-35.108 30.209-55.037 43.448-3.86 9.238-7.064 15.993-11.671 24.891-8.849 13.376-22.273 25.56-34.324 36.057-11.927 10.389-28.095 16.368-41.317 24.633-6.912 2.475-15.627 5.842-22.504 7.74-2.879.25-6.157.451-8.973.92a288 288 0 0 1-10.562-1.817c-15.047-3-22.798-9.822-30.993-22.112l.491-9.536 2.524-3.1c-.557-3.217-11.073-3.683-14.797-4.456-10.09-2.095-16.938-4.083-25.416-10.102 48.833 2.619 101.016-17.419 133.957-54.762 28.074-31.826 20.357-65.372 17.108-102.926"/><path fill="rgb(19,165,174)" d="m675.714 722.978 52.235 21.272c10.608 4.288 22.431 9.441 33.471 12.274 4.662 1.197 5.387 1.028 8.572-1.084 10.007 9.689 24.885 18.781 35.888 28.293 14.56 12.588 28.882 25.462 43.219 38.33 7.009 6.291 15.472 12.491 20.454 20.133 9.469 14.523 13.433 36.194 20.427 50.152a1173 1173 0 0 0 17.183 43.175c8.596 18.935 18.91 43.113 26.818 62.416-6.76 3.431-13.974 7.321-20.979 10.111-21.484-34.019-47.322-69.055-64.206-105.656-17.319-37.544-14.416-37.19-51.038-56.836l-61.884-32.77c-40.853-21.516-80.754-35.443-60.16-89.81m214.645-175.127c16.694 10.217 23.158 13.758 42.416 18.964-2.327 16.482-6.107 34.312-14.663 48.717-5.256 8.85-10.783 22.111-17.749 29.394-1.903-.751-4.604-9.935-5.97-13.061-9.959-22.795-18.435-40.209-34.164-59.588 13.055-8.856 18.587-16.068 30.13-24.426"/><path fill="rgb(254,209,145)" d="M991.569 572.637c8.242 5.087 9.791 6.517 14.721 14.847 1.2 2.325 2.93 5.974 4.33 8.031 1.56 8.613 1.02 8.441-4.87 14.984-9.436 10.217-14.824 14.283-27.712 20.618-7.206-5.63-14.109-10.977-20.001-18.077-3.86-9.341-.247-21.251 2.223-30.84 3.604-3.498 5.846-6.875 11.072-6.27 2.917 2.386 3.104 5.5 4.027 9.355 5.689-6.02 9.158-8.292 16.21-12.648m53.081 16.943c8.23.892 14.46 11.494 18.35 17.963-8.7 13.747-33.26 33.166-38.21 5.725.39-5.051.76-10.105 1.09-15.16 2.88-3.473 13.29-6.219 18.77-8.528"/><path fill="rgb(137,144,143)" d="M1010.62 595.515c3.74.937 7.23 1.703 10.84 3.092l4.42-.499c-.33 5.055-.7 10.109-1.09 15.16l-5.69 1.392c-6.39 1.681-8.84-.095-13.35-4.161 5.89-6.543 6.43-6.371 4.87-14.984"/><path fill="rgb(86,135,163)" d="m1021.46 598.607 4.42-.499c-.33 5.055-.7 10.109-1.09 15.16l-5.69 1.392c1.5-4.451 3.09-11.376 2.36-16.053"/><path fill="rgb(16,95,136)" d="M359.205 330.344c23.044 45.089 31.612 66.185 72.857 101.308 9.168 9.379 34.064 24.85 39.234 35.75 19.395 40.89 13.483 65.656 47.732 101.211 7.379-15.309 7.183-23.212 7.906-39.942 7.546.951 11.877 1.461 19.576 1.442 3.249 37.554 10.966 71.1-17.108 102.926-32.941 37.343-85.124 57.381-133.957 54.762 8.478 6.019 15.326 8.007 25.416 10.102 3.724.773 14.24 1.239 14.797 4.456l-2.524 3.1a467 467 0 0 1-30.654 13.763c-12.02 5.01-22.513 7.36-30.813 17.838-18.731-6.594-33.899-19.074-47.02-33.524-21.6-6.198-34.905-14.05-49.345-31.463 17.222 6.736 21.211 8.911 39.521 8.858-11.703-7.306-25.654-14.868-33.819-25.736 29.82 12.409 49.368 13.299 78.412-2.027 22.491-11.868 41.359-24.794 61.887-39.54q-5.001.402-10.012.681c-17.782.975-32.321-1.488-45.907-13.697 10.744-1.883 18.913-3.487 29.22-6.92-29.254-3.755-44.636 2.005-68.904-22.58 13.982.57 19.697 1.728 33.154-2.327-28.163-2.888-56.691-8.129-73.925-33.238 16.888 6.977 26.615 6.93 44.493 5.968-29.349-10.868-59.078-7.5-76.03-42.482 16.686 6.306 27.499 8.426 44.965 10.476a495 495 0 0 0-13.789-5.014c-29.191-10.307-44.678-21.751-58.178-49.999 13.556 6.373 16.728 9.801 32.288 12.939-12.413-10.095-25.582-16.608-34.65-31.345-3.141-5.106-10.001-16.614-8.707-22.68l1.451-.875c3.936.694 7.52 3.766 10.697 6.125 32.469 24.103 71.556 36.753 109.608 48.98 25.029 8.042 60.114 14.283 80.807 30.991 18.399 16.116 29.943 40.214 46.453 58.038 6.424 6.936 29.675 32.593 37.791 32.252l1.167-2.214c-3.411-4.941-11.288-10.847-15.739-15.445-14.106-14.568-25.197-32.039-37.188-48.324-13.222-17.96-25.995-36.255-47.591-44.798-14.685-5.809-29.858-9.062-44.638-14.437-11.431-13.655-15.459-26.769-15.42-44.018 7.134 4.715 13.381 13.218 18.852 16.052l.631-.787c-16.07-17.213-21.693-42.539-17.545-65.362 3.473 4.907 12.377 18.072 16.15 21.568 1.287-4.656-14.304-29.511-1.602-60.812"/><path fill="rgb(236,241,239)" d="M254.133 467.957c9.932.631 9.936.43 18.687 5.099-4.998 1.831-13.443-2.855-18.687-5.099"/><path fill="rgb(254,198,46)" d="M861.682 312.071c-8.346-5.033-58.362-23.125-49.945-37.425 2.868-1.014 22.454 5.438 28.281 6.469 36.333 6.579 73.34 7.363 110.039 7.967 37.242.612 83.803-4.702 118.593 9.856 31.87 13.334 47.24 49.414 67.25 74.63 6.33 7.978 31.08 24.07 41.21 29.337-7.3 6.596-25.18 27.657-32.32 35.903-7.86 9.085-10.17 28.408-27.2 35.431-8.84 3.647-13.94.865-21.34 2.848l-1.98.57c-.1 8.338 15.35 17.841 21.84 21.705-19.16 3.618-36.3 7.316-53.21 17.743l-.44.637c-4.58 8.547-9.21 6.696-16.76 10.628-12.35 9.409-16.08 16.79-24.11 29.732-16.26-5.672-33.557-15.042-45.71-27.393-19.086 2.766-28.101 8.233-39.581 23.968-9.503-2.303-31.478-7.769-38.608-13.91-1.23-4.06 2.181-10.403 4.147-14.112 9.943-18.75 14.43-45.662 34.292-56.625-1.868-2.409-5.805-5.981-7.405-8.402-4.664-7.057-7.066-19.002-9.225-27.303 45.969 21.8 85.33 19.514 129.74-3.723-6.86-2.11-24.33-6.721-27.59-12.405l1.32-2.135c.81-2.061.7-1.004.2-3.288l-3.5-2.107c-7.75-.603-39.408-4.963-40.325-13.282l2.277-1.106c3.342-.925 5.438-1.405 8.592-2.994l-.132-1.453-3.345-1.94c-9.988.052-52.125-5.206-53.764-15.106 1.599-1.014 1.888-.944 3.696-1.483 9.272-4.173 13.038-.081 21.263-5.109-4.291-1.279-13.974-1.505-19.055-1.521-17.476-.052-41.83-4.649-54.625-17.559l.096-1.373c4.543-1.11 6.148-.053 10.395-.415 4.109-1.211 9.258-2.077 11.607-5.306-4.005-1.116-10.126-1.322-14.479-2.138-14.725-2.758-47.603-10.931-51.856-27.065l1.382-1.669c2.024-.254 5.27 1.072 7.23 1.806q5.876.14 11.74.53zm112.865 182.513a5.485 5.485 0 1 0-6.197-9.053 5.485 5.485 0 0 0 6.197 9.053"/><path fill="rgb(19,165,174)" d="M936.13 470.03c24.479-11.073 53.142-10.51 66.04 16.609-.98 12.089-2.78 19.933-7.573 31.199l-1.486 5.349c-5.411 2.61-11.566 5.925-17.231 7.522-19.086 2.766-28.101 8.233-39.581 23.968-9.503-2.303-31.478-7.769-38.608-13.91-1.23-4.06 2.181-10.403 4.147-14.112 9.943-18.75 14.43-45.662 34.292-56.625m38.417 24.554a5.485 5.485 0 1 0-6.197-9.053 5.485 5.485 0 0 0 6.197 9.053"/><path fill="rgb(254,105,52)" d="M1002.17 486.639c20.05 20.647 29.94 21.384 57.37 25.597 1.52.234 2.78 3.601 3.36 4.869l-.44.637c-4.58 8.547-9.21 6.696-16.76 10.628-12.35 9.409-16.08 16.79-24.11 29.732-16.26-5.672-33.557-15.042-45.71-27.393 5.665-1.597 11.82-4.912 17.231-7.522l1.486-5.349c4.793-11.266 6.593-19.11 7.573-31.199"/><path fill="rgb(254,176,49)" d="M993.111 523.187c15.339 3.695 36.859 6.254 52.589 5.183-12.35 9.409-16.08 16.79-24.11 29.732-16.26-5.672-33.557-15.042-45.71-27.393 5.665-1.597 11.82-4.912 17.231-7.522"/><path fill="rgb(49,94,117)" d="M994.597 517.838c22.363 5.532 46.513 10.766 67.863-.096-4.58 8.547-9.21 6.696-16.76 10.628-15.73 1.071-37.25-1.488-52.589-5.183z"/><path fill="rgb(253,251,209)" d="M861.682 312.071c3.84-1.126 45.293 5.318 53.177 6-11.563 1.561-58.011 1.386-66.232-5.117q5.876.14 11.74.53zm44.668 29.949c3.577-1.949 33.668-1.093 39.318-.269-10.072 1.752-42.19 7.584-50.925 5.575 4.109-1.211 9.258-2.077 11.607-5.306m80.387 47.872c3.475-1.153 30.133-3.686 36.003-4.499-8.41 4.243-32.466 12.747-41.118 10.886 3.342-.925 5.438-1.405 8.592-2.994l-.132-1.453zm-28.805-21.698c2.271-2.828 24.982-4.055 30.136-4.544-9.658 4.137-42.097 12.202-51.399 9.653 9.272-4.173 13.038-.081 21.263-5.109m61.738 42.473a1287 1287 0 0 1 30.35-2.917c-5.53 2.213-21.91 9.528-27.05 8.312.81-2.061.7-1.004.2-3.288z"/><path fill="rgb(16,95,136)" d="M888.488 755.93c18.474-2.818 42.55-.426 61.654-1.874 12.021-.912 25.416-.441 37.586-1.107 4.889-.268 10.033.967 11.591 5.958-.718 3.014-.957 3.291-3.376 5.246-6.485 1.803-125.052-2.522-133.119-4.005-8.912.014-24.738.434-33.083-1.948l2.098-.663.045-.059c10.06-1.105 47.458-2.663 56.604-1.548"/><path fill="rgb(86,135,163)" d="M862.824 760.148c-8.912.014-24.738.434-33.083-1.948l2.098-.663.045-.059c10.06-1.105 47.458-2.663 56.604-1.548-4.506.855-11.03 1.608-14.989 2.771l1.43.076c-5.013 1.379-6.868 1.297-12.105 1.371"/><path fill="rgb(16,95,136)" d="M855.944 726.84c7.244-1.226 15.543-.725 22.934-.776 39.728-.27 79.455-2.708 119.182-3.407 5.79-.102 11.52.564 11.98 7.101-.76 1.649-.95 3.029-2.8 3.702-6.79 2.472-128.411-1.665-140.679-3.25-5.13.081-15.926.389-20.111-1.984 3.118-1.351 6.062-1.211 9.494-1.386"/><path fill="rgb(118,162,181)" d="M866.561 730.21c-5.13.081-15.926.389-20.111-1.984 3.118-1.351 6.062-1.211 9.494-1.386 8.975.053 17.159-.18 26.016 1.362l-.168.586c-5.773.887-9.387 1.188-15.231 1.422"/><path fill="rgb(16,95,136)" d="M934.744 786.493c13.558-.537 33.054-1.402 46.8-.132 2.063.19 3.205 2.603 4.134 4.177-.308 1.482-.108 1.829-1.335 2.88-8.045 6.886-67.507 1.031-81.467.237-17.877-1.035-32.79-1.992-50.558-4.167 1.021-.829 74.247-2.887 82.426-2.995"/><path fill="rgb(254,198,46)" d="M904.2 823.028c13.568-.296 60.706-5.011 67.971.892.642 3.212.573 2.022-.843 5.467-5.23 4.326-63.461 2.135-71.15-.097-12.641-.135-19.88.067-32.214-2.748 11.311-2.297 24.736-4.086 36.236-3.514"/><path fill="rgb(253,227,135)" d="M867.964 826.542c11.311-2.297 24.736-4.086 36.236-3.514-3.076 2.321-3.837 2.74-7.706 2.653l3.087.882c.934 1.929.967 1.042.597 2.727-12.641-.135-19.88.067-32.214-2.748"/><path fill="rgb(19,165,174)" d="M151.974 1058.48c42.565-.38 85.133-.2 127.693.55-.357 3.88.373 8.59-.556 12.21-2.314 9.05-5.827 15.08-6.427 24.56q-40.562.24-81.123-.24c-1.372 5.67-5.617 20.63-4.333 25.57 11.112 10.7 95.705-13.95 83.613 56.8-10.143 57.29-63.773 56.02-109.19 55.8l-50.315-.51 28.147-120.95c1.591-6.97 10.681-50.81 12.491-53.79m59.459 134.15c3.515-3.35 7.313-6.85 10.618-10.36.126-18.88.254-24.01-21.966-23.97-7.482.01-15.835.17-23.356.01-1.887 9.11-6.771 27.59-7.522 35.73 5.231 4.18 36.246 3.93 42.226-1.41"/><path fill="rgb(16,95,136)" d="M1255.54 1113.63c3.33 1.7 145.83 1.29 162.06 1.41l-7.13 32.07c-11.56.53-24.42.11-36.08-.03l-19.6 86.06c-14.05.24-28.1.22-42.15-.07 2.91-12.79 19.23-74.71 15.99-83.9-3.33-2.88-27.12-1.82-33.73-2.03 2.1-11.05 4.38-22.07 6.83-33.06-16.46 20.24-36.19 53.55-50.48 76.44-31.17 49.26-49.55 109.39-120.21 88.9 3.38-10.79 6.42-20.81 10.71-31.3 21.96 3.88 28.84 4.65 40.97-15.39-7.18-37.06-16.03-80.5-21.6-117.73 14.88-.15 29.77-.16 44.65-.04 3.82 19.99 5.12 49.67 7.99 71.03 7.18-7.11 34.06-59.26 41.78-72.36"/><path fill="rgb(254,154,50)" d="M993.997 167.557c-.953-2.482-2.445-6.46-2.916-8.984-1.451-7.779-.77-38.461 6.346-41.604 4.833 2.244 7.723 12.389 9.653 17.499 11.18 30.408 31.71 56.209 54.72 78.473 26.03 25.184 72.76 42.956 84.76 79.162 6.11 18.448 11.5 65.083 30.44 76.319-.26 1.419-.34 4.156-1.54 4.406-4.03.836-14.25 5.315-17.46 5.858-4.1-10.169-19.79-17.878-26.06-27.975-5.91-9.492-11.93-19.908-18.08-28.998-21.53-31.832-54.67-41.283-91.39-41.816-8.44-.865-24.033 1.958-31.394-1.033-4.938-2.007-16.295-22.916-14.01-29.117 3.729-.601 4.458 3.333 8.863 3.296 1.672-5.086-3.27-11.138-6.184-15.477-4.581-6.822-18.188-34.612-7.252-40.427l3.581 2.036 2.714-.911.046-3.246c-1.873-8.464-9.015-37.613 1.894-41.145 3.36 1.358 4.429 4.024 6.424 7.243 2.501 3.005 3.519 4.379 5.653 7.725l.885-.027z"/><path fill="rgb(253,251,209)" d="m978.834 195.018.778-.923c7.474 14.592 6.789 15.407 17.564 29.959-5.35-4.944-20.036-18.081-21.102-24.879l2.714-.911zm8.318-33.902c2.501 3.005 3.519 4.379 5.653 7.725l.885-.027.307-1.257c2.791 2.127 4.987 11.033 7.333 14.987l-1.27 2.44c-3.467-5.142-12.682-18.083-12.908-23.868"/><path fill="rgb(254,209,145)" d="M1001.33 182.544c2.19 3.112 5.2 6.437 5.33 9.968-2.68-.708-5.13-5.059-6.6-7.528z"/><path fill="rgb(19,165,174)" d="M509.619 1115.19c17.282-1.58 23.475-4.48 41.316.25-1.167 6.81-6.868 28.93-4.59 32.95 3.124-.55 31.295-30.03 34.161-33.58 1.777-.54 1.536-.69 3.283-.61 6.253-1.83 37.755-1.91 43.36-.13 1.16 1.81-.085 3.85-1.321 5.28-15.657 18.18-36.71 33.09-50.661 52.71-.683 4.51 25.08 51.64 28.676 60.19l.385.93c-14.153.19-33.289.94-46.963-.38-2.789-5.57-18.958-37.38-20.593-38.9l-1.67.34c-3.868 5.55-8.393 30.97-10.078 39.02-14.163.12-28.328.09-42.491-.1 1.751-7.02 8.585-31.18 6.459-36.38-4.793-.03-29.141 29.53-38.253 36.58-16.759-.19-33.521-.04-50.274.46 18.784-20.02 39.342-40.43 58.356-60.35.427-.44 2.187-3.83 2.147-4.01-2.905-13.71-25.275-43.1-27.37-54.38l1.29-.84c7.527-1.89 32.329-2.14 39.682-.16 5.775 1.45 6.366 1.86 9.455 7.29 6.311 11.11 7.516 19.49 16.744 28.75 3.461-11.7 5.486-23.52 8.95-34.93"/><path fill="rgb(190,226,231)" d="M583.789 1114.2c6.253-1.83 37.755-1.91 43.36-.13-6.423 1.69-36.617 1.36-43.36.13m-149.001.04c7.527-1.89 32.329-2.14 39.682-.16-7.093 1.62-32.464 1.37-39.682.16"/><path fill="rgb(254,154,50)" d="M980.679 854.609c13.365-20.518 20.511-43.501 32.331-64.601 8.75-15.636 14.5-32.871 22.87-48.241 19.53 41.066 37.79 40.842 68.35 64.719-3.89 4.989-7.9 11.741-11.43 15.814-7.7 8.873-17.12 17.152-25.46 25.715-15.88 16.309-30.61 35.309-51.07 46.23-10.82 5.777-28.333 10.264-40.216 14.95-22.012 8.681-47.383 17.041-68.891 26.328a1173 1173 0 0 1-17.183-43.175c15.477-11.912 23.245-21.33 42.149-28.528 18.647-7.1 28.765-8.882 48.55-9.211"/><path fill="rgb(19,165,174)" d="m896.477 1114.52 26.519.58c-1.805 11.69-5.703 23.46-7.868 35.06-5.238 28.06-13.28 55.05-18.734 83.08l-40.365.04c3.076-13.54 9.172-36.32 8.774-49.43a2221 2221 0 0 1-25.149 34.35c-9.078 1-19.17.56-28.28.19-3.922-12.27-4.848-24.36-9.285-35.74-4.64 14.31-6.155 21.53-9.076 36.14-1.672 5.18-2.833 9.33-4.106 14.63-13.044.11-26.575-.23-39.655-.38 6.453-36.47 19.107-80.53 27.145-118.09l42.457.03c8.656 16.1 9.561 42.07 16.012 62.16 3.003-3.24 5.355-6.47 7.755-10.16a705 705 0 0 1 37.152-51.84z"/><path fill="rgb(16,95,136)" d="M1782 1114.99c14.08-.12 28.17-.15 42.25-.07-1.6 5.56-3.01 11.88-4.15 17.57-6.66 33.28-16.13 67.26-21.68 100.65-13.43.16-26.36.34-39.8-.13 1.92-7.26 11.16-43.52 9.49-48.45l-1.48.26c-5.29 4.96-19.66 26.73-24.55 33.83-9.97.21-17.9.35-27.81-.35-1.09-9.56-5.84-28.84-8.9-37.79-6.97 12.94-10.7 37.84-13.85 52.8-13.24.1-25.89.23-39.14-.36 9.61-36.58 18.62-80.58 27.28-117.95l42.18-.01c5.47 19.75 9.51 40.28 15.09 60.47 16.57-15.94 31.12-47.02 45.07-60.47"/><path fill="rgb(254,198,46)" d="M1177 368.422c27 13.047 66.12-30.95 79.09-51.575 17.56-27.944 26.76-67.452 63.75-75.607 28.44-6.272 49.26-1.972 63.4 25.029-3.04 2.155-2.77 1.638-3.45 6.604-1.61 11.787-1.93 16.77-6.55 27.874l-2.22 4.788c-10.75 11.043-30.19 8.998-44.63 14.353-31.77 11.783-52.73 49.887-60.37 81.231-1 4.09-.24 5.865-3.19 9.378-3.35-.195-13.35-11.738-22.34-14.961-18.82-6.753-32.53-6.383-51.14.174-10.32-4.641-24.66-14.5-31.35-17.024 3.21-.543 13.43-5.022 17.46-5.858 1.2-.25 1.28-2.987 1.54-4.406"/><path fill="rgb(16,95,136)" d="M1341.31 262.431a6.905 6.905 0 0 1 10.66 5.627 6.89 6.89 0 0 1-3.4 6.105c-3.23 1.904-7.39.875-9.37-2.315a6.91 6.91 0 0 1 2.11-9.417"/><path fill="rgb(19,165,174)" d="M356.96 1108.31c9.994-1.4 23.124-.53 32.718 2.37 33.528 10.15 28.599 46.35 20.258 73.05-11.524.16-72.007-1.76-77.43 2.47-.746 2.37-.9 4 .111 6.31 9.456 21.55 49.984 8.03 63.646 3.62-.759 7.12-1.117 13.97-1.517 21.12.196 3.61.309 4.29-.851 7.68-5.287 6.64-20.136 8.56-28.448 10.12-20.226 3.82-49.363 3.05-66.191-9.6-25.814-19.42-15.964-62.47.79-84.57 15.71-20.73 32.151-28.6 56.914-32.57m-22.856 49.79 22.146.02c6.018.15 12.566 1.22 17.058-3.38 7.17-7.35-5.876-16.64-12.773-15.89-2.091.21-4.226.47-6.364.79-8.417 2.67-15.121 11.42-20.067 18.46m319.629-43.67c1.946-.34 22.479.58 25.901.69-1.98 14.94-7.848 38.82-11.207 54.24 13.673-13.93 36.79-45.64 50.754-54.4l39.241-.1-17.059 75.89c-3.368 14.44-7.321 27.77-9.884 42.52l-15.229.08-27.338-.03c3.951-17.21 7.82-36.46 11.915-53.08-14.682 10.99-34.92 41.82-47.428 53.4-13.478-.53-27.743-.37-41.286-.44l17.359-77.66c2.941-13.34 4.766-27.77 9.479-40.43z"/><path fill="rgb(16,95,136)" d="M1919.12 1114.96c13.05-.34 27.45.04 40.6.12-5.32 29.22-13.97 58.77-19.65 88.01-1.83 9.42-4.28 19.96-6.78 29.18l-2.04.86c-13.16.25-25.06.46-38.25-.11 3.11-13.07 11.24-43.35 10.91-55.67-7.45 7.43-40.08 46.93-45.83 55.74-13.96.36-27.94.36-41.91 0l26.32-117.96c13.58-.44 27.42-.15 41.03-.02-2.4 10.02-11.72 44.17-9.22 52.12 4.36-1.67 39.97-45.89 44.82-52.27m-325.32-2.65c29.87-3.82 66.57 2.9 59.17 41.93-5.01 26.46-11.66 52.48-16.24 79.05-12.14-.18-23.83.19-36.22-.15-.63-2.74-1.82-5.59-2.81-8.25-20.1 12.52-37.1 15.71-58.52 4.49-12.48-9.72-10.62-26.37-5.93-39.72 8.93-25.46 41.11-31.06 64.72-30.5 4.53.1 10.68.22 14.84-1.61 2.65-5.18-2.1-13.2-5.87-14.22-15.57-4.24-36.57 2.31-51.29 7.6.82-9.73 1.86-19.43 3.11-29.11 12.4-4.33 22.02-7.54 35.04-9.51m-4.29 94.4c15.25-6.02 14.31-8.93 17.34-24.51-5.74-.01-12.71-.22-18.33.08-21.64 5.61-26.35 26.55.99 24.43m-493.26-729.623c29.57 22.115 50.27-30.694 64.97-47.759 9.2-10.686 20.95-19.182 34.32-23.917 19.61-6.941 46.59-3.145 58.09 15.926 2.62 4.355 4.21 14.518 2.83 19.37-2.13 18.179-1.82 16.271 3.61 33.292-2.25 1.732-5.24 3.898-7.34 5.684-2.97 10.783-3.13 14.793-11.19 22.993-7.64-1.667-15.26-3.397-22.87-5.19-2.48 6.994-4.35 12.687-6.36 19.852l-.5 1.942c-1.08 3.636-1.25 4.781-3.79 7.684-1.3.384-3.29 1.337-4.17-.029-9.43-14.728-13.85-17.977-30.03-24.553-25.86-5.052-31.67-4.8-57.71-3.02-6.49-3.864-21.94-13.367-21.84-21.705z"/><path fill="rgb(254,209,145)" d="M1249.03 432.95c3.13 2.811 4.99 4.3 7.43 7.757-2.13 18.179-1.82 16.271 3.61 33.292-2.25 1.732-5.24 3.898-7.34 5.684-2.97 10.783-3.13 14.793-11.19 22.993-7.64-1.667-15.26-3.397-22.87-5.19-2.48 6.994-4.35 12.687-6.36 19.852l-.5 1.942c-1.08 3.636-1.25 4.781-3.79 7.684-1.3.384-3.29 1.337-4.17-.029-9.43-14.728-13.85-17.977-30.03-24.553 14.53-8.745 18.44-14.831 25.55-29.556-3.03-6.584-5.8-15.098-1.33-21.672 8.83-6.797 12.34 3.863 23.23 1.687 12.59-2.514 20.52-10.196 27.76-19.891"/><path fill="rgb(254,105,52)" d="M1443.39 469.684c18.88-8.771 17.67-23.61 30.49-37.59 17.15-18.708 33.96-14.114 50.48 1.123 24.55-18.873 46-11.29 68.67 5.151 1.24 6.067 2.64 11.721 1.48 17.816-3.1 16.298-2.75 22.02 5.81 35.474l-7.72 5.828c-1.96 5.91-4.94 21.196-10.75 23.065-11.25 3.616-23.01-9.285-26.33 9.67-9.2-2.804-40.09-10.572-46.57-14.149 8.68-1.287 9.44-3.298 12.39-11.11-7.85-11.396-13.9-21.273-13.91-35.572-.01-4.193.13-9.283-1.32-13.147l-1.47-.422c-7.06 6.222-10.67 20.699-22.87 27.66-8.02 5.114-21.21 7.985-30.53 5.764-6.04-1.438-20.17-11.245-18.36-18.692 3.95-2.142 5.22-1.172 10.51-.869"/><path fill="rgb(254,209,145)" d="M1581.62 455.7c2.79.17 11.41-.056 12.89.484-3.1 16.298-2.75 22.02 5.81 35.474l-7.72 5.828c-1.96 5.91-4.94 21.196-10.75 23.065-11.25 3.616-23.01-9.285-26.33 9.67-9.2-2.804-40.09-10.572-46.57-14.149 8.68-1.287 9.44-3.298 12.39-11.11 4.34-.026 6.6-1.747 10.22-3.116 14.37-5.42-3.35-26.312 7.96-31.909 5.1.482 8.49 3.982 11.91 7.424 14.09-6.971 19.71-10.601 30.19-21.661"/><path fill="rgb(16,95,136)" d="M1169.36 818.977c9.7 4.226 58.12 26.638 62.46 32.877l-.16 1.884c-2.68 4.267-19.94 30.553-23.08 32.082-29.77 14.49-63.24 23.502-94.06 36.108-4.36 1.785-20.52 8.049-24.01 8.144l-4.72 3.221c-3.88 4.474-10.74 12.109-14.86 16.419-7.62 7.984-16.95 40.145-24.34 44.102-6.56-.714-7.74-4.304-8.76-10.392-2.94-17.517 1.75-35.266 2.8-52.754.51-8.524.6-17.097 1-25.647 10.14-2.144 20.66-3.124 30.97-4.237 24.92-19.51 57.62-42.759 87.89-51.61 2.93-7.415 6.2-21.541 8.87-30.197"/><path fill="rgb(254,154,50)" d="M1073.45 904.31c5.81 9.773 10.36 16.595 17.06 25.762l-4.72 3.221c-10.23-8.537-11.04-16.735-12.34-28.983"/><path fill="rgb(121,121,121)" d="M1010.73 1022.22c33.38-1.35 67.72-1.63 101.11-.95 20.16.41 40.14 1.74 60.36 1.8 5.79 10.99 7.02 14.69 15.75 23.61 3.59 2.6 2.09 2.13 6 2.62 1.77-.77 3.53-1.46 5.19-2.45l5.19-.87c3.43-2.19 50.56-2.71 55.81-1.09l.58.11c24.4 3.6 43.93 2.16 68.34 2.43l94.26 1.35c11.45.07 22.4.99 33.68 1.17l138.41 2.84c46.54.35 93.08 1.58 139.57 3.7 8.38.42 19.17.08 26.95.71l-.65 1.52c-5.05.62-18.73-.13-21 .85-73.81 1.96-152.05.35-225.96-.35-108.14.06-216.29-1.66-324.38-5.13-27.31-.76-56.03.93-83.05-.52-49.06-2.62-100.46-.68-149.109-4.25 2.372-2.51 3.204-3.7 6.481-4.9 9.289-3.13 22.679-7.28 31.317-11.73 3.24-1.67 11.401-8.02 15.151-10.47"/><path fill="rgb(254,176,49)" d="M1010.73 1022.22c33.38-1.35 67.72-1.63 101.11-.95 20.16.41 40.14 1.74 60.36 1.8 5.79 10.99 7.02 14.69 15.75 23.61l-130.99-.61c-28.13 0-64.904 1.11-91.933-.35l-.765-1.3c9.289-3.13 22.679-7.28 31.317-11.73 3.24-1.67 11.401-8.02 15.151-10.47"/><path fill="rgb(253,251,209)" d="M1204.33 1045.98c3.43-2.19 50.56-2.71 55.81-1.09-4.32 4.22-46.86 1.8-55.81 1.09"/><path fill="rgb(19,165,174)" d="M816.942 1021.51c19.819.82 68.495-2.99 84.857 1.55l2.166 2.79c.258 5.96 2.905 15 4.301 21.16-37.198-.31-74.399-.03-111.589.84-18.322.52-48.794 2.6-65.846 2.1l-1.461-2.52c-2.714-1.78-10.406-1.65-13.987-1.78-4.457-.43-19.785.12-25.074.2l-51.955.57c-6.408.03-17.842.59-23.627-1.12l5.378-1.16c-9.009-3.19-52.311-2.99-64.396-3.45-83.063-3.17-167.197-2.64-250.166-5.82 6.601-4.69 31.117-2.11 41.904-4.45l-.207-1.25c44.087-.54 88.324-2.99 132.483-2.27 8.928.15 18.737-1.32 27.832-1.54 16.753-.4 34.549 1.5 51.186-.18 7.521-2.48 40.397-1.17 49.829-.99 48.116.16 95.549-2.31 143.64-1.21 12.647.29 30.737.89 42.892-.99 3.247 5.53 6.642 11.4 13.129 13.33 9.027-1.4 6.963-7.4 8.711-13.81"/><path fill="rgb(190,226,231)" d="M620.105 1044.14c3.084 1.89 14.349 1.16 18.393.81 6.527-5.49 73.058-1.03 85.969-.47-3.482.14-5.775.01-9.084 1.17-4.457-.43-19.785.12-25.074.2l-51.955.57c-6.408.03-17.842.59-23.627-1.12z"/><path fill="rgb(112,189,198)" d="M558.741 1025.18c7.521-2.48 40.397-1.17 49.829-.99-7.88 2.1-42.119 2.98-49.829.99"/><path fill="rgb(16,95,136)" d="m1549.03 1114.7.52.45c-1.48 4.08-48.99 50.32-55.21 55.62 10.5 20.74 22.86 41.66 32.93 62.51-14.72.09-32.14.62-46.63-.43-8.83-14.97-13.7-31-24.09-46.4-4.98 13.08-6.9 29.63-10.77 43.24-.78 2.77-.75 2.52-2.65 3.46-13.35.23-26.71.2-40.06-.08 9.79-37.84 16.99-79.32 26.63-117.99 13.72-.26 27.45-.3 41.17-.11-2.7 13.39-5.65 24.65-7.1 38.32 13.57-7.21 27.22-26.37 38.61-38.28 15.55-.28 31.1-.39 46.65-.31"/><path fill="rgb(254,209,145)" d="M795.767 520.629c-10.254-16.123-21.445-42.008-11.77-60.839.94-4.721 10.516-6.926 11.974-9.157 7.565-11.577 6.336-12.752 21.208-14.016 14.987-1.273 28.773 6.279 43.401 7.425 3.411.268 14.264-3.152 18.265-4.323 6.637 4.429 1.424 28.411-12.182 32.177 4.667 16.308-3.519 19.051 8.402 40.038l-8.341 4.608c-2.483 9.9-4.009 16.915-8.883 26.039-8.654.379-14.796.127-23.431-1.631-1.656 3.108-3.367 6.517-5.225 9.48-17.959 34.26-42.727 12.799-43.321-17.168 3.826-6.04 4.751-7.726 9.903-12.633"/><path fill="rgb(16,95,136)" d="M795.767 520.629c-10.254-16.123-21.445-42.008-11.77-60.839.94-4.721 10.516-6.926 11.974-9.157 7.565-11.577 6.336-12.752 21.208-14.016 14.987-1.273 28.773 6.279 43.401 7.425 3.411.268 14.264-3.152 18.265-4.323 6.637 4.429 1.424 28.411-12.182 32.177-9.371.103-20.628-.894-28.829-.659l-.667 1.056c-5.365 8.613-6.233 23.623-11.037 25.55-5.522-4.349-12.224-12.429-18.358-12.631-7.5 3.697-4.447 14.128-.987 19.885a89 89 0 0 0 3.039 4.649c-5.197 7.187-5.639 8.661-14.057 10.883"/><path fill="rgb(254,209,145)" d="M1351.94 419.935c19.37-8.49 33.37-1.194 52.77.371 5.28.426 15.15-2.966 20.76-1.781 3.72 4.97 3.38 13.215 1.14 18.84-2.96 7.443-5.71 8.621-12.74 11.479 2.01 15.563-.12 22.131 7.49 36.748-2.33 1.863-5.84 4.499-7.89 6.504-6.87 24.891-7.52 27.883-34.31 22.402-1.46 3.311-3.37 7.365-4.58 10.68-2.52 4.966-5.49 11.78-10.51 14.361-15.64 8.049-27.54-22.869-31.67-33.524 3.01-2.303 6.43-7.275 10.13-10.592-1.53-7.925-12.02-25.942-12.33-38.371-.46-18.543 11.06-24.146 21.74-37.117"/><path fill="rgb(16,95,136)" d="M1351.94 419.935c19.37-8.49 33.37-1.194 52.77.371 5.28.426 15.15-2.966 20.76-1.781 3.72 4.97 3.38 13.215 1.14 18.84-2.96 7.443-5.71 8.621-12.74 11.479-8.13.286-22.48-2.864-26.47 1.38-4.78 5.1-6.01 19.703-12.45 22.998-6.05-1.873-9.35-17.905-18.33-11.274-16.55 12.226 16.85 25.3-14.09 33.475-1.53-7.925-12.02-25.942-12.33-38.371-.46-18.543 11.06-24.146 21.74-37.117"/><path fill="rgb(254,154,50)" d="M1055.65 1111.43c9.17-.63 35.74 1.72 40.68 9.89 1.03 5.27-9.3 22.59-12.64 30.66-26.11-10.83-51.87-11.72-60.21 22.31-1.4 5.71-.88 9.96-.32 15.81 17.45 19.42 31.72 13.27 52.97 4.68-.49 8.42-.75 17.93-2.34 26.11.14 2.75.07 2.83-1.39 5.26-8.63 6.8-25.61 9.3-36.62 10.49-25.68 2.79-56.632-11.88-57.832-40.7-.525-20.15 6.397-44.83 20.015-59.96 13.667-15.17 37.967-23.39 57.687-24.55"/><path fill="rgb(16,95,136)" d="M1635.47 505.58c7.81-8.037 17.6-21.39 22.96-31.131 8.48-15.413 14.01-33.322 27.55-45.453a54.45 54.45 0 0 1 39.94-14.12c8.27.523 24.73 5.12 30.01 12.169 2.58 3.456 4.25 9.939 7.54 13.288-1.68 3.802-2.59 12.528-4.24 18.186-1.59 5.464-3.71 8.854-5.03 12.88.38 2.391.69 3.003-.35 5.21-16.87 11.38-26.27 9.718-43.84 14.414-17.08 4.566-29.88 26.485-37.86 41.084-14.26-8.158-24.93-15.168-36.68-26.527m96.99-58.507c3.47-3.489 3.74-2.725 4.78-6.928-1.77-3.974-3.72-4.698-8.11-5.595-2.62 2.384-4.28 3.396-4.73 6.961 1.35 4.316 3.27 5.146 8.06 5.562m-1206.945 64.396c-3.785-23.669-5.628-34.903 2.213-58.528 12.164-36.648 69.231-49.752 84.661-9.375-1.422 8.458-3.23 15.913-6.453 23.894-1.273 3.151-1.794 3.517-1.099 6.822l-.014 4.157c-17.277 7.907-19.887 6.771-33.241 19.986-1.432 7.859-1.536 10.725-1.614 18.546-14.19-.583-30.669-2.239-44.453-5.502m56.539-60.906a5.998 5.998 0 1 0-4.468-11.133 6 6 0 0 0-3.242 7.764 6 6 0 0 0 7.71 3.369m809.396 552.237c1.18-.74 12.52-5.706 15.16-6.972 8.11-3.882 13.2-7.62 20.77-11.904.79 1.767 1.42 3.494 2.51 5.065 11.42 9.454 14.68 9.695 28.12 14.251 10.92 3.69 34.76-.81 38.62 7.01.62 11.4-12.6 12.07-12.66 16.41 32.87.97 65.84 1.85 98.72 2.78 22.22.63 40.13-.71 63.23 1.41 13.63-.96 22.74.69 35.59.9 16.65.27 31.43.83 48.16 1.86-7.69 2.52-25.89 3.63-34.14 3.13-61.19.26-122.37 1.16-183.54 2.69l-56.53 1.19c-10.83.29-29.9 1.7-39.8-.32-9.55 2.73-11.74 3.82-21.07 1.09-2.05-6.87-2.38-7.79-2.86-15.12-.43-6.93-.26-16.41-.28-23.47"/><path fill="rgb(254,176,49)" d="M1415.66 1040.3c7.09-2.85 61.92-14.6 68.31-13.64 32.87.97 65.84 1.85 98.72 2.78 22.22.63 40.13-.71 63.23 1.41 13.63-.96 22.74.69 35.59.9 16.65.27 31.43.83 48.16 1.86-7.69 2.52-25.89 3.63-34.14 3.13-61.19.26-122.37 1.16-183.54 2.69l-56.53 1.19c-10.83.29-29.9 1.7-39.8-.32"/><path fill="rgb(254,209,145)" d="M1645.92 1030.85c13.63-.96 22.74.69 35.59.9 16.65.27 31.43.83 48.16 1.86-7.69 2.52-25.89 3.63-34.14 3.13-4.57-.89-15.12-1.17-20.19-1.44.84-.32 9.16-.44 10.95-.52l-.31-.6c-12.25-2.33-26.5-.11-40.06-3.33m-254.47-28.05c1.18-.74 12.52-5.706 15.16-6.972 8.11-3.882 13.2-7.62 20.77-11.904.79 1.767 1.42 3.494 2.51 5.065-7.08 11.191-26.08 15.251-38.44 13.811"/><path fill="rgb(19,165,174)" d="M633.931 417.327c-.732-28.543 5.003-53.758 35.584-62.786 19.757-5.833 46.722.258 52.738 22.358.72 14.108-.337 16.893-6.493 29.95l1.367 4.075c-15.537 13.998-28.36 12.08-46.2 23.033-11.96-4.827-25.067-12.512-36.996-16.63"/><path fill="rgb(254,105,52)" d="m433.134 705.459-.491 9.536c8.195 12.29 15.946 19.112 30.993 22.112q5.264 1.007 10.562 1.817c-26.312 9.849-59.967 10.107-87.317 4.369-9.051 6.911-15.316 15.39-22.046 23.775-6.601 8.223-15.77 34.179-21.868 37.291-2.683-.904-3.139-1.727-4.908-3.919-4.604-1.674-18.14 6.42-24.14 9.101-.006-9.902.011-17.851.896-27.679-4.962-.623-9.67-1.48-14.593-2.357 5.965-10.34 16.042-15.542 19.896-24.145 22.27-1.855 36.491-1.642 51.549-18.3 8.3-10.478 18.793-12.828 30.813-17.838a467 467 0 0 0 30.654-13.763"/><path fill="rgb(16,95,136)" d="M386.881 743.293c9.364-7.832 33.982-21.005 45.762-28.298 8.195 12.29 15.946 19.112 30.993 22.112q5.264 1.007 10.562 1.817c-26.312 9.849-59.967 10.107-87.317 4.369"/><path fill="rgb(254,198,46)" d="m554.397 226.968 299.432-4.123c13.227-.113 80.178-2.548 86.964.011 2.109 2.501 1.485 1.456 1.824 5.192-4.619 10.14-29.042 5.782-39.511 5.794l-216.606-.723-83.004-.098c-9.259-.006-31.472.634-39.266-.168-28.941 1.177-57.765-.127-86.734.342-15.032.243-29.171.281-43.981-2.755 13.809-3.143 19.188-1.831 32.802-2.544 29.396-1.541 58.639-1.062 88.08-.928"/><path fill="rgb(250,221,144)" d="M433.515 230.44c13.809-3.143 19.188-1.831 32.802-2.544 29.396-1.541 58.639-1.062 88.08-.928l.947 1.548c-4.838.95-7.545 1.244-12.082 1.663-7.608.704-38.44-2.427-43.199.355l.349 1.019c8.659-1.632 55.791-1.008 63.818 1.3-28.941 1.177-57.765-.127-86.734.342-15.032.243-29.171.281-43.981-2.755"/><path fill="rgb(16,95,136)" d="M838.77 924.208c7.102 11.739 14.376 24.198 21.963 35.563l-17.172 8.084c-11.004 15.699-25.594 33.955-26.619 53.655-1.748 6.41.316 12.41-8.711 13.81-6.487-1.93-9.882-7.8-13.129-13.33-3.545-20.07-.711-32.159-.369-52.206.211-12.32-1.698-26.539.128-38.626 8.884-2.593 27.676-4.093 37.252-5.039z"/><path fill="rgb(254,154,50)" d="M838.77 924.208c7.102 11.739 14.376 24.198 21.963 35.563l-17.172 8.084c-13.798-12.45-15.741-24.328-11.448-41.736z"/><path fill="rgb(16,95,136)" d="M420.928 842.327c10.791 2.221 26.417 9.364 36.204 14.614l5.479 1.478a215 215 0 0 1-7.226 37.869l-6.23-.226c-25.729 14.545-38.132 28.865-54.795 52.78-4.703-2.851-11.155-5.855-11.673-11.829-1.591-18.357 10.025-39.227 18.037-55.347 5.835-11.74 12.9-29.36 20.204-39.339"/><path fill="rgb(254,209,145)" d="m457.132 856.941 5.479 1.478a215 215 0 0 1-7.226 37.869l-6.23-.226c-11.92-15.943-6.8-28.173 7.977-39.121"/><path fill="rgb(16,95,136)" d="m933.981 997.939 3.168 7.211c12.304 7.87 32.525 7.97 46.537 6.62 11.109-1.08 31.624-8.68 27.044 10.45-3.75 2.45-11.911 8.8-15.151 10.47-8.638 4.45-22.028 8.6-31.317 11.73-3.277 1.2-4.109 2.39-6.481 4.9-3.363-.02-10.332.07-13.455 1.37-11.09 4.59-16.73 7.55-28.574 9.94-3.571-4.72-4.441-5.91-6.728-11.3l-.758-2.32c-1.396-6.16-4.043-15.2-4.301-21.16l-2.166-2.79-4.146-8.22c5.264-3.09 9.699-4.63 15.349-6.79 7.005-2.79 14.219-6.68 20.979-10.111"/><path fill="rgb(254,209,145)" d="m933.981 997.939 3.168 7.211c-9.557 14.4-14.394 20.76-33.184 20.7l-2.166-2.79-4.146-8.22c5.264-3.09 9.699-4.63 15.349-6.79 7.005-2.79 14.219-6.68 20.979-10.111"/><path fill="rgb(86,135,163)" d="M909.024 1049.33c8.358-.81 27.642-1.26 35.302 1.36-11.09 4.59-16.73 7.55-28.574 9.94-3.571-4.72-4.441-5.91-6.728-11.3"/><path fill="rgb(254,176,49)" d="M1199.01 1021.77c30.82 1.57 61.6.4 92.46 2.82 12.85 1 27.37-.16 40.52.43 5.12.84 6.84.53 12.03-.04 19.49-.21 27.12-2.86 47.71 1.29.48 7.33.81 8.25 2.86 15.12-12.73.83-26.28.54-39.12.77l-54.89 1.33c-6.84.1-35.16.3-39.86 1.51l-.58-.11c-5.25-1.62-52.38-1.1-55.81 1.09l-5.19.87c.38-7.3-2.27-19.78-.13-25.08"/><path fill="rgb(254,105,52)" d="m1246.52 891.152 2.52.653c9.22 13.597 17.57 27.323 28.05 40.094-14.07 7.368-33.81 23.265-47.04 33.028-8.78 6.485-14.07 12.186-24.3 18.137-7.41-10.633-11.83-17.309-16.02-29.791 10.23-7.733 28.28-32.095 38.09-42.408 5.72-6.016 13.57-13.514 18.7-19.713"/><path fill="rgb(16,95,136)" d="M1189.73 953.273c4.19 12.482 8.61 19.158 16.02 29.791-3.3 4.449-8.86 34.116-6.74 38.706-2.14 5.3.51 17.78.13 25.08-1.66.99-3.42 1.68-5.19 2.45-3.91-.49-2.41-.02-6-2.62-8.73-8.92-9.96-12.62-15.75-23.61-2.09-13.38-14.09-47.489-13.84-58.528 3.1-4.424 24.98-9.452 31.37-11.269"/><path fill="rgb(254,105,52)" d="M483.171 738.004c6.877-1.898 15.592-5.265 22.504-7.74 11.267 7.166 66.104 9.975 85.571 14.156-27.589 12.054-12.803 15.064-20.586 39.349-7.194-2.987-19.952-8.675-26.989-10.559-7.365 3.565-10.293 5.487-15.59 11.779-5.121-12.428-7.016-24.094-8.848-37.408-12.756-2.712-25.02-3.121-36.062-9.577"/><path fill="url(#a)" d="M571.938 1045.96c10.84-.01 21.12-.13 31.941-.71 4.458-.24 4.988.94 10.848.05 5.785 1.71 17.219 1.15 23.627 1.12l51.955-.57c5.289-.08 20.617-.63 25.074-.2 3.581.13 11.273 0 13.987 1.78l1.461 2.52a4755 4755 0 0 1-177.531 3.41c-50.615.81-101.239.93-151.857.36-9.828.43-22.809-.27-32.586-1.25 12.274-3.5 38.654-4.35 51.727-3.53 14.72-.67 27.849-1.37 42.531-1.45 14.467-.08 40.325 1.17 54.177-1.14 14.901-1.11 39.113-.48 54.646-.39"/><path fill="rgb(161,186,198)" d="M368.857 1052.47c12.274-3.5 38.654-4.35 51.727-3.53 3.337.65 4.421.76 7.486 2.11-3.657 2.7-20.097.89-26.627 2.67-9.828.43-22.809-.27-32.586-1.25"/><path fill="rgb(118,162,181)" d="M517.292 1046.35c14.901-1.11 39.113-.48 54.646-.39-3.936 2.98-46.535 2.13-53.99 1.94z"/><path fill="rgb(19,165,174)" d="M742.322 258.844c7.256-.257 14.848-.42 22.06-.957 34.204-2.543 68.149-1.203 102.343-2.125q24.57-.729 49.149-.882c8.84-.073 22.062-2.96 25.853 6.549-.927 4.753-5.568 4.713-9.794 4.77-43.402.593-86.805-.598-130.198-1.139a4753 4753 0 0 1-60.767-.946c-9.22-.155-23.338.112-32.122-.901-13.269-.064-29.614.768-42.297-2.402 18.491-1.727 58.052-2.715 75.773-1.967"/><path fill="rgb(112,189,198)" d="M666.549 260.811c18.491-1.727 58.052-2.715 75.773-1.967-5.974 2.717-9.003.979-15.405 2.057l-.282.983c2.898-.014 6.357-.301 8.991.638-9.727 1.054-18.052.008-26.78.691-13.269-.064-29.614.768-42.297-2.402"/><path fill="rgb(19,165,174)" d="M563.447 975.35c62.501.035 126.31-4.328 188.925-3.21 1.823.033 3.409.952 4.682 2.209 1.518 3.436 1.315 1.945.797 5.639-1.648 1.874-2.262 3.087-5.345 3.161-7.934.188-17.981.017-25.716.029-19.41.03-50.134-.274-68.39-1.065-11.015-.477-98.236-.56-102.677-1.928-17.306-.073-56.436.399-71.983-1.974 14.479-4.162 62.382-3.04 79.707-2.861"/><path fill="rgb(112,189,198)" d="M555.723 980.185c-17.306-.073-56.436.399-71.983-1.974 14.479-4.162 62.382-3.04 79.707-2.861 7.809 1.214 13.524.747 21.151 2.783-10.091 2.216-20.406 1.081-28.875 2.052"/><path fill="rgb(254,105,52)" d="M1383.24 266.269c23.19 21.115 34.74 22.147 63.9 25.583 1.85.219 2.98 5.074 3.51 6.988-12.93 24.981-59.53 6.085-79.63 6.695l2.22-4.788c4.62-11.104 4.94-16.087 6.55-27.874.68-4.966.41-4.449 3.45-6.604"/><path fill="rgb(49,94,117)" d="M1373.24 300.747c4.4.204 12.58 1.973 17.17 2.713 23.15 3.727 38.52 6.196 60.24-4.62-12.93 24.981-59.53 6.085-79.63 6.695z"/><path fill="rgb(254,176,49)" d="M1763.47 440.333c9.2 4.479 14.87 15.308 28.22 17.855 6.12 1.167 13.7 5.171 20.84 4.847 4.58.575 8.62-.146 12.02 2.695.75 2.447 1.13 3.435 1.36 5.96-11.21 21.936-52.93 10.035-72.06 4.919 1.04-2.207.73-2.819.35-5.21 1.32-4.026 3.44-7.416 5.03-12.88 1.65-5.658 2.56-14.384 4.24-18.186"/><path fill="rgb(49,94,117)" d="M1754.2 471.399c25.2 6.734 47.02 12.305 71.71.291-11.21 21.936-52.93 10.035-72.06 4.919 1.04-2.207.73-2.819.35-5.21"/><path fill="rgb(254,176,49)" d="M722.253 376.899c16.176 5.036 28.555 19.912 46.335 21.122 10.415.709 13.642-1.182 18.25 7.048-2.126 5.234-3.392 6.585-8.83 9.132-12.195 5.713-48.687 2.467-60.881-3.277l-1.367-4.075c6.156-13.057 7.213-15.842 6.493-29.95"/><path fill="rgb(49,94,117)" d="M715.76 406.849c23.041 4.971 50.585 10.817 71.078-1.78-2.126 5.234-3.392 6.585-8.83 9.132-12.195 5.713-48.687 2.467-60.881-3.277z"/><path fill="rgb(254,176,49)" d="M612.389 443.566c15.502 10.416 27.2 23.691 49.425 24.122 5.188.1 8.547.7 10.086 6.589-3.677 7.083-4.175 7.277-11.838 10.376-11.095 4.488-45.342-1.148-55.239-6.214l.014-4.157c-.695-3.305-.174-3.671 1.099-6.822 3.223-7.981 5.031-15.436 6.453-23.894"/><path fill="rgb(49,94,117)" d="M604.837 474.282c23.603 6.136 44.956 12.672 67.063-.005-3.677 7.083-4.175 7.277-11.838 10.376-11.095 4.488-45.342-1.148-55.239-6.214z"/><path fill="rgb(19,165,174)" d="M179.83 845.426c11.3-1.256 21.445-.952 32.675-1.236 43.689-1.103 87.31-2.223 131.012-2.467 4.304-.024 11.417 2.297 14.322 5.555l-.095 2.229c-7.518 6.744-36.425 3.655-47.868 3.531a8646 8646 0 0 1-116.782-3.157c-1.43-4.53-6.792.834-13.264-4.455"/><path fill="rgb(254,154,50)" d="M587.267 292.218c-15.69.102-165.108-2.804-167.695-5.673l-1.604.542.154-.395c11.451-2.97 181.596-7.767 187.272-4.708-1.116 4.576-.178 4.882-3.688 8.534-3.414 1.969-10.207 1.618-14.439 1.7"/><path fill="rgb(254,198,46)" d="M149.666 645.881c8.415-1.175 108.436-4.536 113.283-2.242 1.396 2.82 1.375 3.217 1.003 6.358-5.181 7.685-19.87 5.655-28.577 5.097-29.11-1.863-60.091-1.1-89.03-3.016-15.984.049-37.884.643-53.323-.766l-2.17-3.439c9.364-1.85 46.443-1.479 58.814-1.992"/><path fill="rgb(253,227,135)" d="M90.852 647.873c9.364-1.85 46.443-1.479 58.814-1.992l6.081.468-.243.511 1.43-.305-1.167-.247-.423.556c-1.972.232-16.566 1.766-16.999 2.228l-5.153.031c5.975.91 8.82-.327 13.153 2.955-15.984.049-37.884.643-53.323-.766z"/><path fill="rgb(254,198,46)" d="M454.422 822.186c39.456-.665 80.521-2.172 120.048-3.389 3.553-.109 7.878.552 10.652 2.91 1.729 5.244-2.269 10.022-6.803 9.783-40.05-2.108-83.926-.418-123.548-4.324-9.873-.013-33.237.733-41.579-2.177l.098-1.054c9.65-2.929 30.166-1.929 41.132-1.749"/><path fill="rgb(250,221,144)" d="M454.771 827.166c-9.873-.013-33.237.733-41.579-2.177l.098-1.054c9.65-2.929 30.166-1.929 41.132-1.749l7.499 1.678q-6.148.519-12.309.826c4.354.774 7.958 1.214 12.361 1.671z"/><path fill="rgb(254,176,49)" d="M162.276 591.369c19.331.779 139.339-5.432 145.223-2.479 1.566 2.726 1.537 3.163 1.41 6.327-1.557 2.594-2.654 3.767-5.803 4.55-7.019 1.746-123.202-1.165-138.115-2.746-3.237-2.274-4.173-2.463-8.116-2.705 2.766-.534 3.788-.722 6.408-1.699z"/><path fill="rgb(254,105,52)" d="M626.763 292.898c41.949-4.167 87.097-1.815 129.411-4.797 6.334-.446 20.332-1.826 24.641 3.173.785 12.042-22.923 8.65-31.383 8.441a7188 7188 0 0 0-83.058-1.617c-12.186-.238-26.653-1.162-38.56-.952-1.679-2.006-1.257-1.032-1.051-4.248"/><path fill="rgb(16,95,136)" d="M190.453 916.246c11.675-.085 23.448-.936 34.98-.962 32.453-.071 64.879-1.386 97.312-1.246 4.294.018 5.251 1.55 6.765 5.213-.647 2.185-.609 2.632-2.665 3.662-7.866 3.94-110.74-1.531-128.284-2.041-9.424.377-21.816-.501-31.567-.819l-.389-2.066c7.806-1.011 15.987-1.822 23.848-1.741"/><path fill="rgb(118,162,181)" d="M166.605 917.987c7.806-1.011 15.987-1.822 23.848-1.741 6.328.944 11.007.852 16.83 1.608-3.355.142-12.694.087-15.081 1.507 2.656.908 3.569 1.061 6.359 1.511-9.424.377-21.816-.501-31.567-.819z"/><path fill="rgb(254,154,50)" d="M502.01 323.927c11.412-2.736 55.929-1.946 68.547-2.245l43.694-1.061c7.877-.19 18.4-1.934 25.58 1.303 1.532 3.011 1.217 1.691.877 5.142-4.749 5.673-17.016 4.251-23.861 3.899-25.564-1.312-51.152-1.432-76.729-2.711-12.242-.627-25.142.252-37.289-1.065-10.261.31-16.295-.12-26.255-1.67l.503-.565c8.419-1.443 16.399-1.089 24.933-1.027"/><path fill="rgb(226,176,144)" d="M502.829 327.189c-10.261.31-16.295-.12-26.255-1.67l.503-.565c8.419-1.443 16.399-1.089 24.933-1.027 3.797 2.96 16.908 2.259 22.118 2.461-6.124.518-17.387.276-21.299.801"/><path fill="rgb(254,154,50)" d="M173.681 747.841c32.459-2.101 66.576-1.179 99.195-2.928 4.847-.26 7.01 1.716 8.206 6.022-1.046 3.32-.236 2.138-3.333 4.342-11.407 1.816-32.264.601-44.381.194a2547 2547 0 0 1-62.766-2.517c-6.641.608-22.349.795-28.239-1.947 2.929-2.437 25.113-2.635 31.318-3.166"/><path fill="rgb(254,209,145)" d="M170.602 752.954c-6.641.608-22.349.795-28.239-1.947 2.929-2.437 25.113-2.635 31.318-3.166 2.197.156 4.171.248 6.349.642-5.096 2.651-14.724.859-18.006 2.023 2.929.702 4.785 1.14 7.772 1.467z"/><path fill="rgb(254,198,46)" d="M659.444 937.407c14.58-.022 100.115-6.152 105.938.647.192.224.676 1.303.815 1.601-.897 2.552-1.552 3.441-4.019 4.749-10.184 5.401-72.624-.564-88.841-1.337-4.855-.103-31.371.011-33.634-3.323 6.417-2.449 12.904-2.231 19.741-2.337"/><path fill="rgb(250,221,144)" d="M673.337 943.067c-4.855-.103-31.371.011-33.634-3.323 6.417-2.449 12.904-2.231 19.741-2.337 3.053.437 6.083.9 9.152 1.208-2.484.465-4.128.66-6.647.865l-.347 1.292c7.481-.93 6.242-1.441 11.735 2.295"/><path fill="rgb(16,95,136)" d="M284.587 882.517c17.1-.986 36.58-.694 53.902-1.013 2.571-.047 3.468 1.306 4.863 2.846.863 4.208.956 2.483-.313 6.554l-1.797 1.384c-18.162-.006-63.996-2.377-78.723-3.04-10.997-.378-51.662-1.367-60.687-3.05 5.582-3.279 71.666-3.577 82.755-3.681"/><path fill="rgb(254,198,46)" d="M827.848 408.926c11.117-2.33 101.328-5.365 111.428-3.036 2.847 2.243 3.128 3.616 2.092 7.178-5.188 3.587-17.432 3.397-23.685 2.919-24.448-1.868-50.862-.82-75.047-3.058-6.019.091-15.074.088-20.57-2.705 1.601-1.612 2.952-1.132 5.782-1.298"/><path fill="rgb(250,221,144)" d="M842.636 412.929c-6.019.091-15.074.088-20.57-2.705 1.601-1.612 2.952-1.132 5.782-1.298 4.533 2.665 9.691 2.066 14.788 4.003"/><path fill="rgb(16,95,136)" d="M147.994 783.148c14.232-1.664 115.755-6.504 122.085-2.254 2.341 3.16 1.867 1.757 2.226 5.349-5.433 6.265-26.994 3.131-35.799 2.988a1607 1607 0 0 1-52.076-1.609c-6.059-.251-20.144-.526-25.458-1.491q5.415-.282 10.836-.481c-6.792-.97-17.959-.191-21.814-2.502"/><path fill="rgb(254,198,46)" d="M173.972 552.161c11.835-.46 85.798-4.565 89.95-1.753 1.472 3.056 1.793 3.549 1.559 6.897-1.211 1.758-3.255 3.88-5.34 3.805-22.706-.818-64.642.583-85.759-2.245-2.058-1.428-1.482-.507-2.151-2.57l-2.855-.184 1.263-.041c2.798-1.876 1.931-.793 3.333-3.909m543.484-222.907c13.322.138 93.34-6.108 99.495-1.662 1.556 3.17 1.249 1.766 1.072 5.374-1.938 2.34-4.25 4.113-7.388 3.758-11.693-1.322-72.061-.523-78.927-2.424-15.689-.033-26.48-.273-41.968-2.266 9.609-2.014 17.915-3.114 27.716-2.78"/><path fill="rgb(250,221,144)" d="M689.74 332.034c9.609-2.014 17.915-3.114 27.716-2.78 2.762.364 6.518.729 9.107 1.485l-8.536 1.146c4.413.402 9.799.537 13.681 2.415-15.689-.033-26.48-.273-41.968-2.266"/><path fill="rgb(16,95,136)" d="M145.957 680.833c9.999-1.243 20.272-.105 30.345-.433 11.194-.365 72.083-5.734 78.258-.772 1.867 1.5 2.078 2.357 2.803 4.541-5.392 7.992-54.226 1.869-66.549 2.389-5.231.221-46.353-1.409-48.456-2.258-4.512-.05-12.063.599-15.886-1.475l-.756.449c3.354-1.767 15.659-2.143 20.241-2.441"/><path fill="rgb(118,162,181)" d="M142.358 684.3c-4.512-.05-12.063.599-15.886-1.475l-.756.449c3.354-1.767 15.659-2.143 20.241-2.441 2.843.104 6.971.385 9.706.247l1.895 1.277 1.278-.443c-1.426-.824-1.956-.722-3.619-.943l1.349 1.478-7.097.751 2.586.16c-4.406.998-5.238 1-9.697.94"/><path fill="rgb(254,198,46)" d="M821.907 371.757c9.573-.547 19.316.17 28.976-.316 9.113-.459 26.478-5.476 34.109.157 1.57 3.119 1.191 1.85.714 5.718-1.614 2.147-3.162 3.424-5.933 3.496-12.927.333-54.151.378-64.631-1.7l-13.539-.273c-5.847-1.209-7.202-1.373-11.979-4.808 10.92-1.347 21.302-1.802 32.283-2.274"/><path fill="rgb(253,227,135)" d="M789.624 374.031c10.92-1.347 21.302-1.802 32.283-2.274l.078 1.106c-5.571 2.755-13.096 1.095-16.583 2.998 5.897.922 5.578.006 9.74 3.251l-13.539-.273c-5.847-1.209-7.202-1.373-11.979-4.808"/><path fill="rgb(16,95,136)" d="M227.301 713.567c7.295-.603 26.574-1.915 33.113-.254 2.664 2.002 3.211 2.116 4.077 5.128l-1.472 2.005c-9.979 5.092-49.872.329-63.519-.406-8.474-.499-32.848.02-38.06-3.06.897-.537 59.022-3.051 65.861-3.413"/><path fill="rgb(254,198,46)" d="M724.88 900.914c14.92.32 59.579-5.142 67.619 1.222 1.022 2.623.875 1.521-.148 4.667-1.694 1.547-3.802 2.694-6.078 2.729-19.575.301-41.631-1.082-61.092-1.965l-3.932-.179c-.734-4.638.266-4.39 3.631-6.474"/><path fill="rgb(112,189,198)" d="M305.543 1034.87c-12.951.19-40.831.51-53.297-1.42 4.413-3.27 83.871-4.48 94.994-4.28l.207 1.25c-10.787 2.34-35.303-.24-41.904 4.45"/><path fill="rgb(137,144,143)" d="M587.267 292.218c4.232-.082 11.025.269 14.439-1.7 3.51-3.652 2.572-3.958 3.688-8.534l.547.867c1.674 2.683 3.164 4.943 2.632 8.247l-.921.804.124.11c2.869-.941 15.65.198 18.987.886-.206 3.216-.628 2.242 1.051 4.248-22.399-.595-48.685-.254-70.526-1.727l-.209-.579c10.784-1.698 19.112-.844 30.188-2.622"/><path fill="rgb(250,221,144)" d="M102.111 593.413c14.896-1.304 45.97-2.477 60.165-2.044l1.007 1.248c-2.62.977-3.642 1.165-6.408 1.699 3.943.242 4.879.431 8.116 2.705-15.715.245-48.903.809-62.88-3.608m72.271-34.548c-10.113.281-35.861.526-44.632-2.779l.474-1.035.455 1.184c3.974-4.204 36.345-4.227 43.293-4.074-1.402 3.116-.535 2.033-3.333 3.909l-1.263.041 2.855.184c.669 2.063.093 1.142 2.151 2.57"/><path fill="rgb(86,135,163)" d="M121.631 848.807c12.724-4.786 42.601-2.883 58.199-3.381 6.472 5.289 11.834-.075 13.264 4.455z"/><path fill="rgb(250,221,144)" d="M721.249 907.388c-8.753-.667-27.145 1.12-33.355-2.715l.455-.952c5.438-2.326 29.158-2.518 36.531-2.807-3.365 2.084-4.365 1.836-3.631 6.474"/><path fill="rgb(137,144,143)" d="M1761.93 1057.2c12.65.24 43.83-.05 54.33 2.83-25.33.41-50.66.26-75.98-.46 2.27-.98 15.95-.23 21-.85z"/><path fill="rgb(86,135,163)" fill-opacity=".988" d="M158.972 786.131c-11.094-.113-22.973.036-33.921-1.324l-.642-.963-1.248.466c4.057-2.434 19.7-1.431 24.833-1.162 3.855 2.311 15.022 1.532 21.814 2.502q-5.421.2-10.836.481"/><path fill="rgb(250,221,144)" d="M801.603 378.839c-11.768.429-16.797.866-27.981-3.024l.759-.716-.982.097 1.558.659.587-.905c5.984-.904 8.073-1.121 14.08-.919 4.777 3.435 6.132 3.599 11.979 4.808"/><path fill="rgb(121,121,121)" fill-opacity=".957" d="M166.994 920.053c-2.84.01-7.025.438-9.1-1.165 2.68-1.458 5.535-.988 8.711-.901z"/><path fill="rgb(253,251,209)" fill-opacity=".969" d="M93.022 651.312c-3.176-.042-3.742-.223-6.863-1.002l.175-1.086 4.518-1.351z"/></svg>